<mxfile host="app.diagrams.net" agent="Mozilla/5.0 (Windows NT 10.0; Win64; x64) AppleWebKit/537.36 (KHTML, like Gecko) Chrome/127.0.0.0 Safari/537.36" version="24.7.7">
  <diagram name="Page-1" id="lzF--1hYkrL5AK4lxE5Z">
    <mxGraphModel dx="2087" dy="989" grid="0" gridSize="10" guides="1" tooltips="1" connect="1" arrows="1" fold="1" page="0" pageScale="1" pageWidth="850" pageHeight="1100" math="0" shadow="0">
      <root>
        <mxCell id="0" />
        <mxCell id="1" parent="0" />
        <mxCell id="ZwCcYQj00CklVtOo7R_d-1" value="" style="rounded=0;whiteSpace=wrap;html=1;" vertex="1" parent="1">
          <mxGeometry x="-57" y="145" width="600" height="400" as="geometry" />
        </mxCell>
        <mxCell id="ZwCcYQj00CklVtOo7R_d-2" value="Clear historly" style="rounded=0;whiteSpace=wrap;html=1;fillColor=#ffe6cc;strokeColor=#d79b00;" vertex="1" parent="1">
          <mxGeometry x="-50" y="155" width="586" height="19" as="geometry" />
        </mxCell>
        <mxCell id="ZwCcYQj00CklVtOo7R_d-4" value="input line edit" style="rounded=0;whiteSpace=wrap;html=1;" vertex="1" parent="1">
          <mxGeometry x="-50" y="188" width="404" height="19" as="geometry" />
        </mxCell>
        <mxCell id="ZwCcYQj00CklVtOo7R_d-5" value="Search" style="rounded=0;whiteSpace=wrap;html=1;fillColor=#b1ddf0;strokeColor=#10739e;" vertex="1" parent="1">
          <mxGeometry x="368" y="188" width="66" height="19" as="geometry" />
        </mxCell>
        <mxCell id="ZwCcYQj00CklVtOo7R_d-6" value="Clear search" style="rounded=0;whiteSpace=wrap;html=1;fillColor=#b1ddf0;strokeColor=#10739e;" vertex="1" parent="1">
          <mxGeometry x="448" y="188" width="88" height="19" as="geometry" />
        </mxCell>
        <mxCell id="ZwCcYQj00CklVtOo7R_d-7" value="" style="rounded=0;whiteSpace=wrap;html=1;fillColor=#d0cee2;strokeColor=#56517e;" vertex="1" parent="1">
          <mxGeometry x="-50" y="238" width="404" height="67" as="geometry" />
        </mxCell>
        <mxCell id="ZwCcYQj00CklVtOo7R_d-8" value="" style="endArrow=none;html=1;rounded=0;exitX=0;exitY=1;exitDx=0;exitDy=0;entryX=1;entryY=0;entryDx=0;entryDy=0;" edge="1" parent="1" source="ZwCcYQj00CklVtOo7R_d-7" target="ZwCcYQj00CklVtOo7R_d-7">
          <mxGeometry width="50" height="50" relative="1" as="geometry">
            <mxPoint x="432" y="454" as="sourcePoint" />
            <mxPoint x="482" y="404" as="targetPoint" />
          </mxGeometry>
        </mxCell>
        <mxCell id="ZwCcYQj00CklVtOo7R_d-9" value="" style="endArrow=none;html=1;rounded=0;exitX=0;exitY=0;exitDx=0;exitDy=0;entryX=1;entryY=1;entryDx=0;entryDy=0;" edge="1" parent="1" source="ZwCcYQj00CklVtOo7R_d-7" target="ZwCcYQj00CklVtOo7R_d-7">
          <mxGeometry width="50" height="50" relative="1" as="geometry">
            <mxPoint x="-40" y="315" as="sourcePoint" />
            <mxPoint x="364" y="248" as="targetPoint" />
          </mxGeometry>
        </mxCell>
        <mxCell id="ZwCcYQj00CklVtOo7R_d-10" value="Favourite runnables&amp;nbsp;" style="text;html=1;align=center;verticalAlign=middle;resizable=0;points=[];autosize=1;strokeColor=none;fillColor=none;" vertex="1" parent="1">
          <mxGeometry x="94" y="238" width="127" height="26" as="geometry" />
        </mxCell>
        <mxCell id="ZwCcYQj00CklVtOo7R_d-11" value="" style="rounded=0;whiteSpace=wrap;html=1;fillColor=#ffff88;strokeColor=#36393d;" vertex="1" parent="1">
          <mxGeometry x="366" y="238" width="170" height="67" as="geometry" />
        </mxCell>
        <mxCell id="ZwCcYQj00CklVtOo7R_d-12" value="" style="endArrow=none;html=1;rounded=0;exitX=0;exitY=1;exitDx=0;exitDy=0;entryX=1;entryY=0;entryDx=0;entryDy=0;" edge="1" parent="1" source="ZwCcYQj00CklVtOo7R_d-11" target="ZwCcYQj00CklVtOo7R_d-11">
          <mxGeometry width="50" height="50" relative="1" as="geometry">
            <mxPoint x="-40" y="315" as="sourcePoint" />
            <mxPoint x="364" y="248" as="targetPoint" />
          </mxGeometry>
        </mxCell>
        <mxCell id="ZwCcYQj00CklVtOo7R_d-13" value="" style="endArrow=none;html=1;rounded=0;exitX=0;exitY=0;exitDx=0;exitDy=0;entryX=1;entryY=1;entryDx=0;entryDy=0;" edge="1" parent="1" source="ZwCcYQj00CklVtOo7R_d-11" target="ZwCcYQj00CklVtOo7R_d-11">
          <mxGeometry width="50" height="50" relative="1" as="geometry">
            <mxPoint x="376" y="315" as="sourcePoint" />
            <mxPoint x="546" y="248" as="targetPoint" />
          </mxGeometry>
        </mxCell>
        <mxCell id="ZwCcYQj00CklVtOo7R_d-14" value="Undo pin" style="text;html=1;align=center;verticalAlign=middle;resizable=0;points=[];autosize=1;strokeColor=none;fillColor=none;" vertex="1" parent="1">
          <mxGeometry x="415" y="238" width="66" height="26" as="geometry" />
        </mxCell>
        <mxCell id="ZwCcYQj00CklVtOo7R_d-15" value="" style="rounded=0;whiteSpace=wrap;html=1;fillColor=#d0cee2;strokeColor=#56517e;" vertex="1" parent="1">
          <mxGeometry x="-50" y="331" width="404" height="200" as="geometry" />
        </mxCell>
        <mxCell id="ZwCcYQj00CklVtOo7R_d-16" value="" style="endArrow=none;html=1;rounded=0;exitX=0;exitY=1;exitDx=0;exitDy=0;entryX=1;entryY=0;entryDx=0;entryDy=0;" edge="1" parent="1" source="ZwCcYQj00CklVtOo7R_d-15" target="ZwCcYQj00CklVtOo7R_d-15">
          <mxGeometry width="50" height="50" relative="1" as="geometry">
            <mxPoint x="432" y="547" as="sourcePoint" />
            <mxPoint x="482" y="497" as="targetPoint" />
          </mxGeometry>
        </mxCell>
        <mxCell id="ZwCcYQj00CklVtOo7R_d-17" value="" style="endArrow=none;html=1;rounded=0;exitX=0;exitY=0;exitDx=0;exitDy=0;entryX=1;entryY=1;entryDx=0;entryDy=0;" edge="1" parent="1" source="ZwCcYQj00CklVtOo7R_d-15" target="ZwCcYQj00CklVtOo7R_d-15">
          <mxGeometry width="50" height="50" relative="1" as="geometry">
            <mxPoint x="-40" y="408" as="sourcePoint" />
            <mxPoint x="364" y="341" as="targetPoint" />
          </mxGeometry>
        </mxCell>
        <mxCell id="ZwCcYQj00CklVtOo7R_d-18" value="Runnables" style="text;html=1;align=center;verticalAlign=middle;resizable=0;points=[];autosize=1;strokeColor=none;fillColor=none;" vertex="1" parent="1">
          <mxGeometry x="120" y="331" width="75" height="26" as="geometry" />
        </mxCell>
        <mxCell id="ZwCcYQj00CklVtOo7R_d-19" value="" style="rounded=0;whiteSpace=wrap;html=1;fillColor=#ffff88;strokeColor=#36393d;" vertex="1" parent="1">
          <mxGeometry x="366" y="331" width="170" height="201" as="geometry" />
        </mxCell>
        <mxCell id="ZwCcYQj00CklVtOo7R_d-20" value="" style="endArrow=none;html=1;rounded=0;exitX=0;exitY=1;exitDx=0;exitDy=0;entryX=1;entryY=0;entryDx=0;entryDy=0;" edge="1" parent="1" source="ZwCcYQj00CklVtOo7R_d-19" target="ZwCcYQj00CklVtOo7R_d-19">
          <mxGeometry width="50" height="50" relative="1" as="geometry">
            <mxPoint x="-40" y="408" as="sourcePoint" />
            <mxPoint x="364" y="341" as="targetPoint" />
          </mxGeometry>
        </mxCell>
        <mxCell id="ZwCcYQj00CklVtOo7R_d-21" value="" style="endArrow=none;html=1;rounded=0;exitX=0;exitY=0;exitDx=0;exitDy=0;entryX=1;entryY=1;entryDx=0;entryDy=0;" edge="1" parent="1" source="ZwCcYQj00CklVtOo7R_d-19" target="ZwCcYQj00CklVtOo7R_d-19">
          <mxGeometry width="50" height="50" relative="1" as="geometry">
            <mxPoint x="376" y="408" as="sourcePoint" />
            <mxPoint x="546" y="341" as="targetPoint" />
          </mxGeometry>
        </mxCell>
        <mxCell id="ZwCcYQj00CklVtOo7R_d-22" value="Pin as favourite" style="text;html=1;align=center;verticalAlign=middle;resizable=0;points=[];autosize=1;strokeColor=none;fillColor=none;" vertex="1" parent="1">
          <mxGeometry x="398" y="331" width="101" height="26" as="geometry" />
        </mxCell>
        <mxCell id="ZwCcYQj00CklVtOo7R_d-24" value="" style="rounded=0;whiteSpace=wrap;html=1;" vertex="1" parent="1">
          <mxGeometry x="-57" y="614" width="600" height="400" as="geometry" />
        </mxCell>
        <mxCell id="ZwCcYQj00CklVtOo7R_d-25" value="Clear historly" style="rounded=0;whiteSpace=wrap;html=1;fillColor=#ffe6cc;strokeColor=#d79b00;" vertex="1" parent="1">
          <mxGeometry x="-50" y="938" width="586" height="19" as="geometry" />
        </mxCell>
        <mxCell id="ZwCcYQj00CklVtOo7R_d-45" value="Back" style="rounded=0;whiteSpace=wrap;html=1;fillColor=#1ba1e2;strokeColor=#006EAF;fontColor=#ffffff;" vertex="1" parent="1">
          <mxGeometry x="-50" y="990" width="586" height="19" as="geometry" />
        </mxCell>
        <mxCell id="ZwCcYQj00CklVtOo7R_d-46" value="Run" style="rounded=0;whiteSpace=wrap;html=1;fillColor=#d5e8d4;strokeColor=#82b366;" vertex="1" parent="1">
          <mxGeometry x="-50" y="964" width="586" height="19" as="geometry" />
        </mxCell>
        <mxCell id="ZwCcYQj00CklVtOo7R_d-47" value="&lt;b&gt;&lt;font color=&quot;#0000cc&quot;&gt;Program full path&lt;/font&gt;&lt;/b&gt;&lt;div&gt;&lt;b&gt;&lt;font color=&quot;#0000cc&quot;&gt;Program name&lt;/font&gt;&lt;/b&gt;&lt;/div&gt;&lt;div&gt;&lt;div&gt;&lt;b&gt;&lt;font color=&quot;#0000cc&quot;&gt;Program description&lt;/font&gt;&lt;/b&gt;&lt;/div&gt;&lt;/div&gt;" style="rounded=0;whiteSpace=wrap;html=1;align=left;" vertex="1" parent="1">
          <mxGeometry x="-50" y="621" width="586" height="49" as="geometry" />
        </mxCell>
        <mxCell id="ZwCcYQj00CklVtOo7R_d-48" value="&lt;font color=&quot;#0000cc&quot;&gt;&lt;b&gt;Argument details&lt;/b&gt;&lt;/font&gt;" style="rounded=0;whiteSpace=wrap;html=1;align=left;" vertex="1" parent="1">
          <mxGeometry x="-50" y="686" width="586" height="25" as="geometry" />
        </mxCell>
        <mxCell id="ZwCcYQj00CklVtOo7R_d-49" value="input line edit" style="rounded=0;whiteSpace=wrap;html=1;fillColor=#ffcccc;strokeColor=#36393d;" vertex="1" parent="1">
          <mxGeometry x="32" y="721" width="504" height="19" as="geometry" />
        </mxCell>
        <mxCell id="ZwCcYQj00CklVtOo7R_d-50" value="Argument:" style="rounded=0;whiteSpace=wrap;html=1;align=left;" vertex="1" parent="1">
          <mxGeometry x="-50" y="721" width="70" height="19" as="geometry" />
        </mxCell>
        <mxCell id="ZwCcYQj00CklVtOo7R_d-51" value="&lt;font color=&quot;#0000cc&quot;&gt;&lt;b&gt;Argument details&lt;/b&gt;&lt;/font&gt;" style="rounded=0;whiteSpace=wrap;html=1;align=left;" vertex="1" parent="1">
          <mxGeometry x="-50" y="775" width="586" height="25" as="geometry" />
        </mxCell>
        <mxCell id="ZwCcYQj00CklVtOo7R_d-52" value="Equip button" style="rounded=0;whiteSpace=wrap;html=1;align=center;fillColor=#ffcccc;strokeColor=#36393d;" vertex="1" parent="1">
          <mxGeometry x="-50" y="807" width="586" height="19" as="geometry" />
        </mxCell>
        <mxCell id="ZwCcYQj00CklVtOo7R_d-53" value="&lt;font color=&quot;#0000cc&quot;&gt;&lt;b&gt;Argument details&lt;/b&gt;&lt;/font&gt;" style="rounded=0;whiteSpace=wrap;html=1;align=left;" vertex="1" parent="1">
          <mxGeometry x="-50" y="855" width="586" height="25" as="geometry" />
        </mxCell>
        <mxCell id="ZwCcYQj00CklVtOo7R_d-54" value="Argument:" style="rounded=0;whiteSpace=wrap;html=1;align=left;" vertex="1" parent="1">
          <mxGeometry x="-50" y="890" width="70" height="19" as="geometry" />
        </mxCell>
        <mxCell id="ZwCcYQj00CklVtOo7R_d-56" value="choices" style="rounded=0;whiteSpace=wrap;html=1;fillColor=#ffcccc;strokeColor=#36393d;" vertex="1" parent="1">
          <mxGeometry x="32" y="890" width="504" height="19" as="geometry" />
        </mxCell>
        <mxCell id="ZwCcYQj00CklVtOo7R_d-57" value="" style="rounded=0;whiteSpace=wrap;html=1;" vertex="1" parent="1">
          <mxGeometry x="-57" y="1106" width="600" height="400" as="geometry" />
        </mxCell>
        <mxCell id="ZwCcYQj00CklVtOo7R_d-59" value="Back" style="rounded=0;whiteSpace=wrap;html=1;fillColor=#1ba1e2;strokeColor=#006EAF;fontColor=#ffffff;" vertex="1" parent="1">
          <mxGeometry x="-50" y="1117" width="586" height="19" as="geometry" />
        </mxCell>
        <mxCell id="ZwCcYQj00CklVtOo7R_d-71" value="" style="rounded=0;whiteSpace=wrap;html=1;" vertex="1" parent="1">
          <mxGeometry x="-50" y="1151" width="586" height="59" as="geometry" />
        </mxCell>
        <mxCell id="ZwCcYQj00CklVtOo7R_d-72" value="" style="endArrow=none;html=1;rounded=0;exitX=0;exitY=1;exitDx=0;exitDy=0;entryX=1;entryY=0;entryDx=0;entryDy=0;" edge="1" parent="1" source="ZwCcYQj00CklVtOo7R_d-71" target="ZwCcYQj00CklVtOo7R_d-71">
          <mxGeometry width="50" height="50" relative="1" as="geometry">
            <mxPoint x="13" y="1305" as="sourcePoint" />
            <mxPoint x="63" y="1255" as="targetPoint" />
          </mxGeometry>
        </mxCell>
        <mxCell id="ZwCcYQj00CklVtOo7R_d-74" value="" style="endArrow=none;html=1;rounded=0;exitX=0;exitY=0;exitDx=0;exitDy=0;entryX=1;entryY=1;entryDx=0;entryDy=0;" edge="1" parent="1" source="ZwCcYQj00CklVtOo7R_d-71" target="ZwCcYQj00CklVtOo7R_d-71">
          <mxGeometry width="50" height="50" relative="1" as="geometry">
            <mxPoint x="-40" y="1220" as="sourcePoint" />
            <mxPoint x="546" y="1161" as="targetPoint" />
          </mxGeometry>
        </mxCell>
        <mxCell id="ZwCcYQj00CklVtOo7R_d-75" value="Command" style="text;html=1;align=center;verticalAlign=middle;resizable=0;points=[];autosize=1;strokeColor=none;fillColor=none;" vertex="1" parent="1">
          <mxGeometry x="198" y="1153" width="73" height="26" as="geometry" />
        </mxCell>
        <mxCell id="ZwCcYQj00CklVtOo7R_d-76" value="" style="rounded=0;whiteSpace=wrap;html=1;" vertex="1" parent="1">
          <mxGeometry x="-50" y="1221" width="586" height="274" as="geometry" />
        </mxCell>
        <mxCell id="ZwCcYQj00CklVtOo7R_d-77" value="" style="endArrow=none;html=1;rounded=0;exitX=0;exitY=1;exitDx=0;exitDy=0;entryX=1;entryY=0;entryDx=0;entryDy=0;" edge="1" parent="1" source="ZwCcYQj00CklVtOo7R_d-76" target="ZwCcYQj00CklVtOo7R_d-76">
          <mxGeometry width="50" height="50" relative="1" as="geometry">
            <mxPoint x="13" y="1375" as="sourcePoint" />
            <mxPoint x="63" y="1325" as="targetPoint" />
          </mxGeometry>
        </mxCell>
        <mxCell id="ZwCcYQj00CklVtOo7R_d-78" value="" style="endArrow=none;html=1;rounded=0;exitX=0;exitY=0;exitDx=0;exitDy=0;entryX=1;entryY=1;entryDx=0;entryDy=0;" edge="1" parent="1" source="ZwCcYQj00CklVtOo7R_d-76" target="ZwCcYQj00CklVtOo7R_d-76">
          <mxGeometry width="50" height="50" relative="1" as="geometry">
            <mxPoint x="-40" y="1290" as="sourcePoint" />
            <mxPoint x="546" y="1231" as="targetPoint" />
          </mxGeometry>
        </mxCell>
        <mxCell id="ZwCcYQj00CklVtOo7R_d-80" value="Logs and error messages" style="text;html=1;align=center;verticalAlign=middle;resizable=0;points=[];autosize=1;strokeColor=none;fillColor=none;" vertex="1" parent="1">
          <mxGeometry x="166" y="1263" width="154" height="26" as="geometry" />
        </mxCell>
        <mxCell id="ZwCcYQj00CklVtOo7R_d-81" value="ShowRunnablesScreen" style="shape=umlFrame;whiteSpace=wrap;html=1;pointerEvents=0;fillColor=#e51400;strokeColor=#B20000;fontColor=#ffffff;width=180;height=27;" vertex="1" parent="1">
          <mxGeometry x="-142" y="98" width="799" height="460" as="geometry" />
        </mxCell>
        <mxCell id="ZwCcYQj00CklVtOo7R_d-82" value="RunnableConfigScreen" style="shape=umlFrame;whiteSpace=wrap;html=1;pointerEvents=0;fillColor=#e51400;strokeColor=#B20000;fontColor=#ffffff;width=180;height=27;" vertex="1" parent="1">
          <mxGeometry x="-142" y="576" width="799" height="460" as="geometry" />
        </mxCell>
        <mxCell id="ZwCcYQj00CklVtOo7R_d-83" value="RunnerScreen" style="shape=umlFrame;whiteSpace=wrap;html=1;pointerEvents=0;fillColor=#e51400;strokeColor=#B20000;fontColor=#ffffff;width=180;height=27;" vertex="1" parent="1">
          <mxGeometry x="-142" y="1065" width="799" height="460" as="geometry" />
        </mxCell>
      </root>
    </mxGraphModel>
  </diagram>
</mxfile>
